<?xml version="1.0" encoding="UTF-8" standalone="no"?>
<!-- Created with Inkscape (http://www.inkscape.org/) -->

<svg
   xmlns:dc="http://purl.org/dc/elements/1.1/"
   xmlns:cc="http://creativecommons.org/ns#"
   xmlns:rdf="http://www.w3.org/1999/02/22-rdf-syntax-ns#"
   xmlns:svg="http://www.w3.org/2000/svg"
   xmlns="http://www.w3.org/2000/svg"
   xmlns:sodipodi="http://sodipodi.sourceforge.net/DTD/sodipodi-0.dtd"
   xmlns:inkscape="http://www.inkscape.org/namespaces/inkscape"
   width="245.2981"
   height="278.84387"
   id="svg2"
   version="1.1"
   inkscape:version="0.48.2 r9819"
   sodipodi:docname="spinach.svg">
  <defs
     id="defs4" />
  <sodipodi:namedview
     id="base"
     pagecolor="#ffffff"
     bordercolor="#666666"
     borderopacity="1.0"
     inkscape:pageopacity="0.0"
     inkscape:pageshadow="2"
     inkscape:zoom="1.4"
     inkscape:cx="462.57104"
     inkscape:cy="99.096156"
     inkscape:document-units="px"
     inkscape:current-layer="layer1"
     showgrid="false"
     inkscape:window-width="1920"
     inkscape:window-height="1018"
     inkscape:window-x="-8"
     inkscape:window-y="-8"
     inkscape:window-maximized="0"
     fit-margin-top="0"
     fit-margin-left="0"
     fit-margin-right="0"
     fit-margin-bottom="0" />
  <metadata
     id="metadata7">
    <rdf:RDF>
      <cc:Work
         rdf:about="">
        <dc:format>image/svg+xml</dc:format>
        <dc:type
           rdf:resource="http://purl.org/dc/dcmitype/StillImage" />
        <dc:title></dc:title>
      </cc:Work>
    </rdf:RDF>
  </metadata>
  <g
     inkscape:label="Layer 1"
     inkscape:groupmode="layer"
     id="layer1"
     transform="translate(-0.04430178,-0.65564145)">
    <g
       id="g2996"
       transform="translate(-255.21581,-192.84047)">
      <path
         style="fill:#549029"
         d="m 328.83982,470.80528 c 3.80768,-9.00154 12.08104,-16.09691 16.22404,-25.29618 6.07513,-12.2167 15.33086,-26.41123 8.59337,-40.18838 -3.89543,-15.51774 -17.93963,-24.55506 -32.00879,-29.82701 -22.44583,-8.03477 -37.15844,-27.91956 -49.58707,-47.18554 -8.83535,-15.14102 -18.77432,-31.39668 -16.46165,-49.72627 0.10611,-18.49619 4.25488,-36.77557 10.19816,-54.18243 8.04923,-15.51497 23.53789,-30.96813 42.26556,-29.80654 18.07446,3.22486 34.18048,14.16494 47.36151,26.57583 7.53781,7.40108 14.82925,27.19468 22.07888,8.26732 14.44593,-18.15533 34.41698,-36.2895 59.05461,-35.93485 14.65053,2.07476 30.48061,5.67372 40.13143,17.90147 15.37481,13.43592 26.87179,33.48789 23.17024,54.48768 -5.67014,32.35928 -22.88154,61.63674 -43.1674,87.01358 -14.46384,12.91244 -32.23984,22.97889 -51.60638,26.0052 -14.14886,4.87341 -29.99974,17.31835 -29.51946,33.63861 -0.33181,11.27164 -0.70063,22.81322 2.38586,33.75987 -0.83462,10.1831 -14.07271,4.24786 -11.74495,-4.47176 -6.15308,-14.753 -12.46835,13.05657 -19.64845,17.68413 -4.02355,4.08453 -11.16627,17.27391 -17.71951,11.28527 z m 43.66902,-31.91163 c -6.14826,-14.76826 -0.43573,20.77734 0.52063,2.19159 l -0.52063,-2.19159 0,0 z"
         id="path3002"
         inkscape:connector-curvature="0" />
      <path
         style="fill:#35832a"
         d="m 366.99318,419.24167 c 2.70411,-11.23881 3.56422,-23.10611 8.23936,-34.02584 3.98939,-9.59115 5.60275,-20.44977 18.76749,-19.83024 4.81178,-0.26844 12.7229,-4.43113 10.74386,1.91645 12.17948,-0.65308 20.9101,-10.00855 25.49717,-20.4204 3.53981,-9.61631 5.77977,-18.9385 13.20438,-25.08524 3.4509,-6.91311 6.83217,-14.12748 4.68666,-22.29203 5.22253,3.90774 10.58135,0.93386 2.65635,-3.42825 -5.90204,-2.52672 -9.63508,-8.71885 -0.71249,-5.76555 2.39021,-7.54673 25.33357,-11.96646 21.22688,-16.63007 -10.46926,7.90986 -24.12636,9.19457 -36.75159,10.75605 -9.22885,3.71042 -13.07935,-8.7193 -17.80324,2.51272 -10.98241,-10.78132 -17.8351,9.16529 -27.56101,13.52908 -7.05172,4.18527 -2.39032,9.65806 -6.4537,14.46569 -6.38227,-7.58918 -6.71021,-23.98469 -8.72133,-29.22619 2.16756,11.39104 -8.96858,25.1499 -0.2881,33.82162 0.75097,6.27515 -3.05098,14.3223 -2.27761,21.31654 0.66104,4.32878 -0.64166,23.74698 -3.81081,9.808 0.3883,-5.41535 -0.98767,-26.0906 -7.13542,-13.11072 -11.00462,-0.6274 2.92266,15.48307 -0.87121,21.80887 -5.87161,-13.0161 -12.67307,-25.36503 -14.5485,-39.75186 -5.79768,6.84333 0.41359,22.16673 5.62075,30.58337 9.91974,9.8698 9.74054,23.90943 10.98086,36.78091 2.39986,-6.14677 4.63292,-25.72797 14.8181,-16.59209 -4.25061,8.83875 -9.54901,16.57003 -13.18664,26.43034 -4.21281,-13.70761 -5.13059,23.79587 -6.81336,4.20824 0.87408,-11.19235 -6.04334,-23.55531 -7.98726,-30.95199 4.65418,-10.145 -13.41085,-16.18696 -12.37241,-1.75455 -2.36684,1.52828 -9.81418,-7.07223 -11.3501,-9.552 -3.59081,4.50962 -4.49433,5.17203 1.64149,9.83054 -6.59929,0.25536 -22.23201,-11.31175 -31.58842,-16.47344 -10.76745,-7.61028 -15.97554,-19.69445 -23.92639,-29.6286 -5.9156,-13.13931 -17.63788,-26.78969 -10.80764,-41.99761 -1.26213,-9.18225 -3.61361,-33.81887 10.03888,-30.43649 9.09606,8.27712 22.1852,12.24152 29.55991,21.83209 1.9327,7.28145 10.84609,0.41141 15.75455,3.57412 1.07779,7.73731 10.38354,5.91529 10.12421,16.08545 2.68952,6.35713 4.43873,15.55061 -4.83586,9.16293 -9.62566,-3.79924 -18.39747,-9.51938 -25.69523,-16.84936 5.60521,7.62132 12.4008,14.43797 21.78942,17.11428 7.02454,0.16737 14.98427,12.65663 17.65485,12.11679 0.48009,-10.58514 -7.80437,-19.12295 -9.30785,-29.56311 0.72667,-13.78485 -14.83689,-12.16215 -23.32672,-17.97434 -12.45092,-4.83158 -21.10815,-16.46357 -34.11881,-19.46219 -3.60364,-10.13988 1.89745,-24.62997 9.27273,-33.05526 9.53109,-5.52109 16.38019,-17.93448 30.00697,-15.15524 13.36356,2.27968 26.47618,7.71993 37.19794,16.62258 12.19022,5.46351 16.18383,22.78978 27.47874,26.59047 10.96374,-16.28556 24.5927,-31.67057 42.57207,-40.32924 12.54181,-2.31421 26.95687,-3.02391 38.85848,2.03756 10.00921,6.75293 21.78138,9.10366 29.10409,20.51282 7.2889,10.19461 14.68673,20.60517 14.50393,33.94004 -0.3371,17.06808 -6.47104,32.99599 -13.58934,48.24097 -5.75683,14.39218 -14.33896,27.56196 -23.3952,40.04484 -10.26944,11.36615 -24.41434,22.35839 -39.07952,25.33586 -8.45706,-2.38507 -19.73809,8.02909 -28.2013,12.40892 -10.54259,7.76876 -22.18128,18.07928 -20.24601,32.55372 -0.17864,3.20759 -8.47975,12.9203 -5.23705,3.40004 z m -31.49315,-58.87949 c -7.80324,-3.58796 3.08334,3.35011 0,0 z m -4.53274,-5.14905 c -4.00863,-6.55316 13.52909,0.61292 2.45556,-6.12216 -6.31324,-3.48209 -11.08839,-4.13363 -5.92282,3.69365 -1.13624,2.45149 5.00334,10.01411 3.46726,2.42851 z m -18.46726,-2.1104 c -7.56445,-11.00027 -3.53571,4.66078 0,0 z m 4,-12.24055 c -9.33568,-5.73182 -0.73583,5.09944 0,0 z m -11.97994,-7.97583 c -6.54938,-5.28566 2.95281,5.9872 0,0 l 0,0 z m 51.96463,-6.77417 c -3.44777,-3.08955 -1.42638,7.6141 0,0 z m -63.44804,-5.67913 c -3.15279,-6.30957 -10.39881,-2.94421 -1.71952,0.50324 0.4164,0.61445 5.87246,5.0832 1.71952,-0.50324 z m 103.34645,-42.97746 c 1.95907,-5.57944 0.58798,-13.37188 7.0438,-15.6192 -1.59751,-7.77723 -9.09899,-2.35574 -11.85518,-9.31938 -8.61086,3.83368 -3.17804,26.10774 4.81138,24.93858 z m -16.94791,-10.07331 c 2.31667,-4.36213 2.83396,-19.54182 -1.31726,-7.35414 -3.26583,4.79367 -3.47629,24.59669 0.8516,9.00249 l 0.46566,-1.64835 z m 101.06481,5.28958 c -2.90605,-4.4038 -3.96444,7.31406 0,0 z m -31.96489,-0.86935 c 6.60299,-1.53897 25.47351,-7.06469 17.00159,-14.7176 -11.46154,1.3845 -22.53137,4.29577 -26.68154,15.76043 1.58183,3.53613 7.02633,-0.83119 9.67995,-1.04283 z m 31.96489,-6.16341 c -3.65451,-2.31228 -9.6859,11.21776 -0.88125,1.74825 l 0.88125,-1.74825 z m -36.51406,-4.25663 c -1.68642,-7.67993 11.82817,-12.06926 11.53265,-13.6269 -11.36782,4.38142 -0.23365,-15.67402 -10.08533,-7.74169 2.08821,5.96774 -5.76581,16.88685 -8.68542,6.55755 -3.05461,12.60989 -7.60166,-10.35848 -11.8357,1.44094 6.78191,2.86855 11.51921,8.5654 10.87122,16.30729 3.84459,1.53643 6.30273,0.87927 8.20258,-2.93719 z m -98.13494,-16.52029 c 3.35937,-4.51481 3.69465,-24.71737 0.5833,-9.92781 -2.50648,9.87083 -7.2825,18.89849 -11.84934,27.92781 4.83483,-5.29748 9.52463,-10.82323 11.26604,-18 z m 67.43167,14.87284 c 9.7795,-1.56437 2.14688,-9.69056 -3.89651,-3.81692 -4.9973,-2.86109 -5.3577,-13.07146 -10.66836,-16.70931 0.86038,5.84737 6.58921,24.64786 14.56487,20.52623 z m 18.28307,-1.40802 c 7.95739,-10.75845 -13.69531,5.06568 0,0 z m -98.06574,-17.07181 c -6.04118,-4.0468 -4.08138,5.45122 0,0 z m 103,1.10699 c -2.69252,-4.02999 -2.35666,3.89339 0,0 z m 26.14301,-1.98635 c 4.68748,-12.24644 -12.39701,4.60359 0,0 z m -33.54735,-3.34227 c 6.97841,-5.61968 -4.50436,-11.86006 -3.89403,-1.42138 -1.69081,4.16991 2.00879,4.31168 3.89403,1.42138 z m -28.90176,-5.67138 c 3.27268,-8.11206 -4.67472,4.83471 -1.03663,2.11875 l 1.03663,-2.11875 z m -91.15766,-6.25 c 4.86176,-9.98991 0.61358,-4.23431 -2.05175,-4.95292 -3.656,-12.87845 -7.69948,-1.69068 -3.12466,5.07593 -6.60517,6.30512 5.3675,6.33469 5.17641,-0.12301 z m 148.49343,0.19456 c 3.10716,-8.87294 -6.19553,6.99125 0,0 z m -30.02967,-0.94456 c 3.74648,-3.70843 9.02848,-18.81449 -1.80792,-9.18692 -2.69842,1.38853 -3.35044,13.19494 1.80792,9.18692 z m 24.22665,-4.52961 c 6.59772,-11.71707 -13.17572,-13.02008 -7.11343,0.44893 0.7604,6.3015 5.86048,3.84938 7.11343,-0.44893 z m -153.22665,0.65205 c -3.82797,-7.09238 -7.93177,1.44483 0,0 z m 75,138.37756 c 4.03878,-6.04498 3.53498,5.84009 0,0 z m 16.71392,-24.78379 c 3.7569,-9.7809 0.52776,6.23698 0,0 z m 7.28608,-1.71621 c 2.69252,-4.02999 2.35666,3.89339 0,0 z m 26.24397,-7.25 c 10.4902,-5.99081 8.12449,3.12448 0,0 z m -28.24397,-1.85887 c 3.24666,-10.36837 4.39331,-0.74653 0,0 z m 9.02224,-18.00627 c 0.87728,-5.29744 15.4145,-23.75171 8.0509,-10.32405 -2.76814,1.90292 -5.3649,11.48651 -8.0509,10.32405 z"
         id="path3000"
         inkscape:connector-curvature="0" />
      <path
         style="fill:#1c7629"
         d="m 371.54423,401.83469 c 4.68941,-9.91539 6.40454,-25.54888 13.07862,-31.54635 3.45312,-1.25498 22.04596,-8.35264 15.60359,-2.435 -5.20756,3.48204 -7.85177,9.41405 0.77359,3.50884 7.05351,-2.4451 17.86227,-9.04551 23.26051,-8.50638 -10.58188,9.0478 -24.67097,13.19607 -35.5106,22.12665 -7.42392,3.59441 -13.67739,12.75301 -17.20571,16.85224 z m 20.9558,-25.63987 c -5.21986,-2.19024 -11.3099,11.98177 -2.44687,2.73329 l 1.27187,-1.20099 1.175,-1.5323 z m -35.46002,2.41736 c -5.1764,-13.23843 -14.80696,-24.11265 -23.6887,-34.90297 -6.21465,3.74183 -20.84001,-5.40259 -24.04347,-10.19944 7.18544,-1.23437 2.51867,-10.29044 -1.38064,-7.0149 -3.97276,7.38252 -8.7639,-0.43483 -11.84334,-4.60998 -0.2508,-4.82261 -21.03939,-16.87629 -12.20214,-6.68553 -2.02427,6.57764 16.2205,9.88347 10.25893,14.60876 -6.37004,-2.04899 0.0525,10.42972 -10.14789,5.67799 -1.73582,-13.39613 -16.11368,-16.42621 -19.49269,-29.4466 -7.65518,-9.89678 2.02274,-22.64132 -4.29495,-33.53567 0.65276,-9.16074 3.68881,-9.93786 10.88979,-5.69624 7.37642,-1.2918 8.60357,-2.01808 11.57515,3.94083 3.50682,4.25269 8.14817,12.12173 -0.39983,8.39866 -9.11904,-0.89502 -7.63611,6.29187 -9.6478,11.62951 -13.80029,0.55221 13.61924,12.36884 13.55363,0.81829 11.41364,-8.96006 21.64263,10.70499 33.76901,11.85409 7.34529,0.17966 12.32666,14.82342 15.82345,12.77078 1.17427,-12.49294 -7.81305,-21.71516 -9.98377,-33.77983 -1.51766,-6.44434 9.88817,-20.3262 12.42811,-18.78185 1.10501,12.97983 19.92877,-1.06257 15.57446,-10.22113 -3.42683,-0.73491 -7.15611,10.04853 -7.61042,-0.15515 -0.91883,-8.32999 5.48315,-33.61245 15.08923,-19.10323 2.7711,5.24296 12.01829,8.50416 5.94859,14.74301 -2.52772,5.28984 -12.48173,20.06652 -7.158,20.66318 6.66627,-5.20198 11.39276,-12.29117 16.5419,-19.73639 2.11587,-5.23801 -1.83901,-13.1925 3.16733,-16.88563 8.33359,-6.77141 13.69565,-16.66106 22.83041,-22.32525 5.81057,-2.20913 10.04577,-8.74486 16.83601,-7.39506 9.04043,-0.43883 18.38365,0.49452 27.12733,-1.88018 6.87405,6.64451 -12.36419,5.47381 -16.37927,4.67528 -13.98988,3.57978 -26.63386,13.4376 -33.54898,26.10595 -1.36036,7.73194 6.45011,21.78321 -7.97356,15.54974 -12.245,0.41625 -13.09282,14.98249 -17.56856,22.71563 8.43933,4.84568 0.17262,18.44044 -7.79581,8.76637 -15.09987,-5.14365 14.26916,18.43691 -4.1555,15.4431 -9.99882,-10.22979 -8.56174,7.83769 -5.90032,13.23256 -3.37605,9.79842 3.67854,30.26364 -0.83985,32.93781 -6.20817,-10.14686 -3.99756,-22.56969 -3.43713,-33.52604 -10.61926,12.38652 -7.87463,30.77583 1.16731,43.24579 6.33121,8.53116 11.88821,20.63957 8.14353,30.72752 l -0.41211,-0.41918 -0.81945,-2.20453 10e-6,-7e-5 z m -31.09575,-43.80523 c 6.24929,-7.14715 -6.13777,-14.29231 -4.96058,-2.83858 -0.32974,3.49985 2.33324,7.9995 4.96058,2.83858 z m 4.55577,-11.33778 c -3.69616,-4.92039 -2.33002,1.69826 0,0 z m -13.5,-6.40851 c -6.30434,-4.59819 -26.32426,-9.55661 -12.75,0.86994 2.47721,0.8683 21.61309,3.32609 13.52324,-0.42969 l -0.64535,-0.36743 -0.12789,-0.0728 z m -47.5,-15.69848 c -2.39488,-3.99516 -1.59482,3.71895 0,0 z m 97.69308,76.64256 c -5.27029,-9.79555 17.19038,-11.11228 2.79162,-3.73184 -1.36914,-0.68563 -1.48628,7.28963 -2.79162,3.73184 z m -57.69308,-19.14256 c 2.62716,-2.44275 11.52425,-7.32926 8.97855,-14.35269 15.07988,5.45699 4.43412,19.07427 -8.97855,14.35269 z m 128.63214,-2.6148 c 1.23356,-9.42501 -16.28531,3.17885 -6.2641,-7.80856 5.85169,-9.95803 8.16313,-25.00254 22.0391,-25.50893 2.73953,-5.33916 -9.45653,-6.03949 -0.45128,-11.0537 8.97914,-5.51104 7.05735,-20.84785 3.30852,-24.72226 5.65433,-2.46875 11.23804,8.39031 6.72584,12.43945 -2.28488,4.78881 0.0143,9.74951 -3.54634,13.68912 12.93087,0.55354 6.65414,-19.62899 20.86411,-17.6551 4.37164,-6.79604 1.33975,-24.42489 11.08054,-24.64419 7.04524,8.63596 -9.73675,13.36828 -3.6211,18.5503 -7.48631,7.36449 -8.23307,25.5614 -18.76743,24.30299 -8.04651,4.55286 -5.80461,11.07599 1.97215,8.41631 -4.631,13.30041 -12.87555,26.87665 -26.06077,33.05433 -2.22981,2.01338 -5.00436,4.89821 -7.27924,0.94024 z m 14.46786,-14.50569 c 1.2918,-10.24758 -6.08754,-5.07228 -5.44312,1.79107 -8.59108,7.10131 1.79213,1.05284 5.44312,-1.79107 l 0,0 z m 4.0875,-7.06262 c -6.14922,-1.00313 1.85778,1.93436 0,0 z m -159.1875,12.18311 c -5.11863,-2.54794 -19.34827,-5.73463 -6,-8.55637 3.02233,-8.66605 11.59017,-6.92283 13.36719,1.50971 2.51847,2.37405 -7.91993,1.87941 -2.84539,7.39565 -0.926,1.99436 -3.55094,1.01938 -4.5218,-0.34899 z m 60.73051,-13.18404 c 0.53344,-10.64198 1.26165,-28.18756 3.34959,-34.06596 9.30931,-0.0165 4.72029,8.46478 4.59604,14.80037 -3.02329,7.60531 2.77124,13.58531 -6.27215,15.69622 -0.75174,-0.25785 -0.20109,5.23734 -1.67348,3.56937 z m 10.26949,-10.75694 c 2.52248,-3.91597 2.75406,2.10212 0,0 z m 103,-4 c 1.80586,-5.41529 2.27199,3.9204 0,0 z M 315.2086,297.11218 c -11.24002,-6.00743 -22.10166,-15.13738 -27.89265,-26.50866 5.6725,-4.99057 11.85631,-0.40805 7.67124,6.03801 8.33992,1.47619 16.67462,6.15316 23.0118,9.153 4.16262,-11.79589 15.38851,24.15717 2.34159,13.6896 -1.73,-0.74792 -3.43983,-1.54209 -5.13198,-2.37195 z m 53.29143,0.69098 c 2.46871,-3.65351 1.95372,4.88357 0,0 z m 8.70611,0.22723 c -0.74624,-7.97747 -2.10341,-30.345 8.25662,-28.73418 4.27263,6.02923 3.80325,8.87748 -3.28008,6.42102 -1.2259,5.93023 6.69935,11.96903 9.76462,6.69867 11.36121,7.26018 -5.22542,10.92811 -11.40091,9.5974 -2.07237,-0.15562 -1.72555,9.65501 -3.34025,6.01709 z m 94.7051,-6.16597 c -1.97977,-11.84023 16.90021,-1.17576 2.99756,2.53652 -1.55177,0.0917 -2.69803,-1.17212 -2.99756,-2.53652 z m -103.06613,-0.0454 c 0.34529,-7.57304 5.12385,5.3714 0,0 z m 60.65492,-9.39782 c 0.91028,-3.52544 -0.60084,-14.1391 4.66096,-6.00421 8.15465,5.26372 23.69434,-5.71973 34.70537,-5.56875 -0.69599,8.37268 -21.94941,10.78492 -31.70343,12.3879 -2.36054,-0.17659 -5.64103,0.68824 -7.6629,-0.81494 z m -11.28154,-3.30902 c 2.06291,-6.1846 -1.5316,-8.59702 -1.67653,-1.87789 -2.41683,-5.9212 -16.3727,-11.49795 -3.20297,-13.30579 7.0489,0.37686 26.64998,-7.09422 15.7204,6.43659 -1.97332,2.30275 -7.51482,12.1973 -10.8409,8.74709 z m -96.12623,-5.75 c -3.39432,-12.64857 -8.61438,-24.88606 -11.05931,-37.60437 8.2321,4.90802 14.34959,19.85511 25.23501,14.60437 6.49718,-4.74642 -3.01846,9.7778 -4.57165,13.1916 -2.9937,2.48907 -5.98526,10.35977 -9.60405,9.8084 z m -14.31099,-6.01898 c -4.13016,-2.58082 -18.40962,-6.45658 -15.00699,-11.41806 5.80677,-4.84546 4.04768,-13.72765 -3.27946,-4.90731 -6.24373,8.28404 -7.83211,-7.98891 -14.99479,-5.07366 2.46283,-4.22758 14.53423,-1.45005 6.10761,-7.95312 3.56965,-5.64083 -0.81343,-12.13452 8.80211,-8.16504 8.53583,-6.24403 29.25718,13.05369 10.696,9.58046 -6.55213,-2.55514 -13.68638,-3.04432 -3.53049,1.63938 5.21325,4.2805 10.03711,4.99054 13.7951,6.59345 1.99615,6.54823 9.32154,19.0326 5.43995,23.38242 -2.71783,-1.13318 -5.37612,-2.40272 -8.02904,-3.67852 z m 5.71876,-6.422 c -1.96607,-7.0067 -4.08481,5.41847 0,0 z m 69.49197,-0.71935 c 2.03649,-18.67334 6.26341,1.94 0,0 z m 105.91893,-0.28117 c -6.21752,-7.78247 10.88029,-11.32748 5.42344,-1.26642 -1.10017,1.748 -3.66825,2.72246 -5.42344,1.26642 z M 275.49831,258.8601 c -4.43069,0.90983 -16.31367,-6.15903 -6.6233,-7.23153 2.54524,-0.9073 14.62457,9.86124 6.6233,7.23153 z m 64.00172,0.62011 c 1.89677,-4.98121 2.811,1.74421 0,0 z m 145.54291,-14.68046 c -3.01919,-9.94555 10.67502,-8.37123 4.99225,0.82404 -1.30082,5.12282 -5.03073,4.11472 -4.99225,-0.82404 z m -22.37384,2.68808 c 1.88525,-5.65059 15.76144,-3.71645 2.84369,0.35278 -0.88851,0.68675 -2.12307,0.37662 -2.84369,-0.35278 z m -121.87521,-5.99014 c -0.87898,-6.03468 -6.76507,-13.52914 -8.96254,-18.451 1.19917,10.17594 -11.07255,5.32342 -16.33132,6.35062 3.96621,-2.40577 10.63413,-16.97299 1.43596,-14.43532 6.76279,-5.22008 -6.85507,-11.5664 4.94874,-10.41141 11.55482,3.55271 22.7057,10.3373 23.45434,23.52171 1.96821,2.19142 -5.05368,24.88368 -4.54518,13.4254 z m 70.70614,3.52853 c 3.44451,-5.9559 13.74759,-8.48484 3.92058,-0.99768 -0.87385,-0.0164 -2.97119,2.61248 -3.92058,0.99768 z m 27,-3.46404 c -3.32845,-6.91354 1.28701,-11.88668 1.8964,-1.77344 2.86337,3.5447 -1.44827,7.43751 -1.8964,1.77344 z m -170.5,-0.2 c 0.28769,-8.6707 5.2067,3.63392 0,0 z m 139.23728,-2.59605 c -1.25746,-9.63273 10.96443,-6.96088 4.04224,0.0549 -1.22628,0.56561 -2.89216,0.90573 -4.04224,-0.0549 z m 69.61788,-2.92081 c -11.21754,-0.39855 -11.57595,-21.12254 0.67053,-14.88337 4.41033,1.9456 5.88166,18.49248 -0.67053,14.88337 z m -75.35516,-2.36511 c 2.20378,-8.45746 2.40025,5.065 0,0 z m -92.35748,-2.88742 c -0.37162,-7.94504 4.52076,-2.71129 0,0 l 0,0 z m 139.37972,0.0194 c 2.88926,-8.36284 6.18147,-1.35144 0.29908,0.71212 l -0.29908,-0.71212 0,0 z M 274.0128,228.38285 c 1.7726,-13.61579 9.27881,3.14395 0,0 z m 75.95619,-4.07089 c -0.93959,-4.85485 4.69755,2.30639 0,0 z m -71.46896,-4.24774 c -0.86666,-7.66818 13.58166,-12.61892 5.90135,-2.2506 -1.57773,-0.44486 -6.2486,5.31323 -5.90135,2.2506 z m 8,-11.38703 c 1.37975,-6.62169 17.14028,-5.44753 7.48627,-1.7291 -2.7913,-1.25429 -5.03155,2.0979 -7.48627,1.7291 z"
         id="path2998"
         inkscape:connector-curvature="0" />
    </g>
  </g>
</svg>
